<svg xmlns="http://www.w3.org/2000/svg" width="393" height="852" viewBox="0 0 393 852" role="img" aria-label="resume"><defs>
 <linearGradient id="bg" x1="0" y1="0" x2="1" y2="1"><stop stop-color="#FFFBF2"/><stop offset=".48" stop-color="#FAF8FE"/><stop offset="1" stop-color="#F0FBF8"/></linearGradient>
 <radialGradient id="orb"><stop stop-color="#FFF7B4" offset="0"/><stop stop-color="#FFD253" offset=".55"/><stop stop-color="#ECA335" offset="1"/></radialGradient>
 <linearGradient id="violet" x1="0" y1="0" x2="1" y2="1"><stop stop-color="#D6C5FF"/><stop offset=".45" stop-color="#9D7EEE"/><stop offset="1" stop-color="#6243BE"/></linearGradient>
 <linearGradient id="mic" x1="0" x2="1"><stop stop-color="#6A5A88"/><stop offset=".35" stop-color="#AAA1BF"/><stop offset=".65" stop-color="#6B607E"/><stop offset="1" stop-color="#41334F"/></linearGradient>
 <linearGradient id="peach" x1="0" y1="0" x2="1" y2="1"><stop stop-color="#FFF3CD"/><stop offset="1" stop-color="#FFD88A"/></linearGradient>
 <filter id="shadow" x="-40%" y="-40%" width="180%" height="200%"><feDropShadow dx="0" dy="9" stdDeviation="12" flood-color="#8872AF" flood-opacity=".12"/></filter>
 <filter id="blur"><feGaussianBlur stdDeviation="24"/></filter>
 </defs><rect x="0" y="0" width="393" height="852" rx="32" fill="url(#bg)" /><text x="28" y="32" font-family="Arial, sans-serif" font-size="14" font-weight="650" fill="#252139" text-anchor="start" >9:41</text><rect x="150" y="13" width="93" height="25" rx="15" fill="#252139" /><path d="M316 29v-4m5 4v-7m5 7V19" stroke="#252139" stroke-width="2.5" stroke-linecap="round"/><path d="M334 22q7-6 14 0m-11 4q4-4 8 0" stroke="#252139" stroke-width="1.8" fill="none"/><circle cx="341" cy="29" r="1.5" fill="#252139"/><rect x="356" y="20" width="19" height="10" rx="3" fill="#252139" /><rect x="376" y="23" width="2" height="4" rx="1" fill="#252139" /><g data-target="home" role="button" tabindex="0" style="cursor:pointer"><svg x="20" y="66" width="24" height="24" viewBox="0 0 24 24" fill="none" stroke="#252139" stroke-width="1.8" stroke-linecap="round" stroke-linejoin="round"><path d="m14 5-7 7 7 7"/></svg></g><text x="60" y="84" font-family="Arial, sans-serif" font-size="16" font-weight="600" fill="#252139" text-anchor="start" >Резюме</text><g data-target="saved" role="button" tabindex="0" style="cursor:pointer"><svg x="336" y="66" width="24" height="24" viewBox="0 0 24 24" fill="none" stroke="#6B50C8" stroke-width="1.8" stroke-linecap="round" stroke-linejoin="round"><path d="M12 15V3m-4 4 4-4 4 4M5 11v9h14v-9"/></svg></g><rect x="24" y="109" width="345" height="158" rx="26" fill="#EEE8FB" /><circle cx="311" cy="129" r="55" fill="#E0D3FF"/><circle cx="60" cy="246" r="48" fill="#FFF0B9"/><rect x="152" y="132" width="88" height="88" rx="28" fill="#EEE8FB" /><circle cx="220.64" cy="152.24" r="14.08" fill="white" opacity=".6"/><text x="196.0" y="188.32" font-family="Arial, sans-serif" font-size="27.28" font-weight="650" fill="#6B50C8" text-anchor="middle" >К</text><text x="196" y="249" font-family="Arial, sans-serif" font-size="23" font-weight="650" fill="#252139" text-anchor="middle" >Куррапика</text><text x="24" y="297" font-family="Arial, sans-serif" font-size="13" font-weight="400" fill="#777184" text-anchor="start" >Ведущий · Алматы</text><text x="24" y="333" font-family="Arial, sans-serif" font-size="28" font-weight="650" fill="#252139" text-anchor="start" >от 500 000 ₸</text><rect x="24" y="351" width="152" height="30" rx="15" fill="#E3F3E9" /><text x="100.0" y="371" font-family="Arial, sans-serif" font-size="11.5" font-weight="550" fill="#366B50" text-anchor="middle" >26 сентября · свободен</text><rect x="184" y="351" width="127" height="30" rx="15" fill="#EEE8FB" /><text x="247.5" y="371" font-family="Arial, sans-serif" font-size="11.5" font-weight="550" fill="#6B50C8" text-anchor="middle" >Русский · до 6 ч</text><text x="24" y="416" font-family="Arial, sans-serif" font-size="18" font-weight="650" fill="#252139" text-anchor="start" >Описание</text><text x="24" y="443" font-family="Arial, sans-serif" font-size="14" font-weight="400" fill="#777184" text-anchor="start" >Проводит корпоративы, торжества и деловые</text><text x="24" y="465" font-family="Arial, sans-serif" font-size="14" font-weight="400" fill="#777184" text-anchor="start" >встречи. В описании отмечает интеллигентный</text><text x="24" y="487" font-family="Arial, sans-serif" font-size="14" font-weight="400" fill="#777184" text-anchor="start" >юмор, чёткую организацию и умение</text><text x="24" y="509" font-family="Arial, sans-serif" font-size="14" font-weight="400" fill="#777184" text-anchor="start" >подстраиваться под настроение аудитории.</text><rect x="24" y="544" width="345" height="102" rx="20" fill="#FFFFFF" /><text x="40" y="570" font-family="Arial, sans-serif" font-size="14" font-weight="600" fill="#252139" text-anchor="start" >Ваши пожелания</text><text x="40" y="594" font-family="Arial, sans-serif" font-size="12.5" font-weight="400" fill="#777184" text-anchor="start" >Русский язык указан в резюме.</text><text x="40" y="613" font-family="Arial, sans-serif" font-size="12.5" font-weight="400" fill="#777184" text-anchor="start" >Спокойный стиль и отказ от конкурсов</text><text x="40" y="632" font-family="Arial, sans-serif" font-size="12.5" font-weight="400" fill="#777184" text-anchor="start" >в описании не подтверждены.</text><g data-target="saved" role="button" tabindex="0" style="cursor:pointer"><rect x="24" y="684" width="345" height="52" rx="18" fill="#FFD367" /><text x="188.5" y="716" font-family="Arial, sans-serif" font-size="15" font-weight="650" fill="#252139" text-anchor="middle" >Сохранить в избранное</text><svg x="333" y="699" width="21" height="21" viewBox="0 0 24 24" fill="none" stroke="#252139" stroke-width="1.8" stroke-linecap="round" stroke-linejoin="round"><path d="M5 12h14m-6-6 6 6-6 6"/></svg></g><rect x="14" y="756" width="365" height="68" rx="26" fill="#FFFFFF" filter="url(#shadow)"/><g data-target="home" role="button" tabindex="0" style="cursor:pointer"><rect x="22" y="763" width="111" height="54" rx="19" fill="#EEE8FB" /><svg x="66" y="768" width="22" height="22" viewBox="0 0 24 24" fill="none" stroke="#6B50C8" stroke-width="1.8" stroke-linecap="round" stroke-linejoin="round"><circle cx="10.5" cy="10.5" r="6.5"/><path d="m16 16 5 5"/></svg><text x="77" y="808" font-family="Arial, sans-serif" font-size="10.5" font-weight="600" fill="#6B50C8" text-anchor="middle" >Подбор</text></g><g data-target="saved" role="button" tabindex="0" style="cursor:pointer"><svg x="185" y="768" width="22" height="22" viewBox="0 0 24 24" fill="none" stroke="#777184" stroke-width="1.8" stroke-linecap="round" stroke-linejoin="round"><path d="M20.8 4.6a5.5 5.5 0 0 0-7.8 0L12 5.7l-1.1-1.1a5.5 5.5 0 0 0-7.8 7.8L12 21l8.8-8.6a5.5 5.5 0 0 0 0-7.8Z"/></svg><text x="196" y="808" font-family="Arial, sans-serif" font-size="10.5" font-weight="400" fill="#777184" text-anchor="middle" >Избранное</text></g><g data-target="team" role="button" tabindex="0" style="cursor:pointer"><svg x="304" y="768" width="22" height="22" viewBox="0 0 24 24" fill="none" stroke="#777184" stroke-width="1.8" stroke-linecap="round" stroke-linejoin="round"><rect x="3" y="5" width="18" height="16" rx="4"/><path d="M7 3v4M17 3v4M3 11h18M8 15h2M14 15h2"/></svg><text x="315" y="808" font-family="Arial, sans-serif" font-size="10.5" font-weight="400" fill="#777184" text-anchor="middle" >Событие</text></g><rect x="133" y="838" width="127" height="4" rx="2" fill="#252139" /></svg>